The Three Musketeers (2011) 1080p MKV x264 AC3+DTS NL Subs
.
[IMG]http://img221.imageshack.us/img221/1042/3mt2012swq.jpg[/IMG]
.
Verenigde Staten / Verenigd Koninkrijk / Frankrijk / Duitsland
Actie / Avontuur
110 minuten

geregisseerd door Paul W.S. Anderson
met Milla Jovovich, Logan Lerman en Matthew Macfadyen

The Three Musketeers speelt zich af in de 17e eeuw en gaat over D'Artagnan die in zijn strijd met Kardinaal Richelieu de samenwerking aangaat met de drie musketiers Athos, Porthos en Aramis. D'Artagnan kan de hulp goed gebruiken en samen met de drie musketiers probeert hij de snode plannen van Kardinaal Richelieu, om de koning tot aftreden te dwingen, te dwarsbomen.

Vanaf 21 februari te huur
Vanaf 28 februari te koop op DVD en Blu-Ray
. 
http://www.moviemeter.nl/film/69862
.
PLOT
.
The hot-headed young D'Artagnan along with three former legendary but now down on their luck Musketeers must unite and defeat a beautiful double agent and her villainous employer from seizing the French throne and engulfing Europe in war. 
. 
http://www.imdb.com/title/tt1509767/
.
INFO
.
NL Vertaling: SRT-TEAM
.
Format                           : Matroska
Format version                   : Version 2
File size                        : 6.36 GiB
Duration                         : 1h 50mn
Overall bit rate                 : 8 233 Kbps
Encoded date                     : UTC 2012-02-03 16:00:35
Writing application              : mkvmerge v5.2.0 ('I can't explain') built on Dec 18 2011 18:12:03
Writing library                  : libebml v1.2.3 + libmatroska v1.3.0

Video
ID                               : 1
Format                           : AVC
Format/Info                      : Advanced Video Codec
Format profile                   : High@L4.1
Format settings, CABAC           : Yes
Format settings, ReFrames        : 5 frames
Codec ID                         : V_MPEG4/ISO/AVC
Duration                         : 1h 50mn
Bit rate                         : 5 920 Kbps
Width                            : 1 920 pixels
Height                           : 816 pixels
Display aspect ratio             : 2.35:1
Frame rate                       : 23.976 fps
Color space                      : YUV
Chroma subsampling               : 4:2:0
Bit depth                        : 8 bits
Scan type                        : Progressive
Bits/(Pixel*Frame)               : 0.158
Stream size                      : 4.57 GiB (72%)
Writing library                  : x264 core 120 r2146 bcd41db
Encoding settings                : cabac=1 / ref=5 / deblock=1:0:0 / analyse=0x3:0x113 / me=umh / subme=7 / psy=1 / psy_rd=1.00:0.00 / mixed_ref=1 / me_range=16 / chroma_me=1 / trellis=1 / 8x8dct=1 / cqm=0 / deadzone=21,11 / fast_pskip=0 / chroma_qp_offset=-2 / threads=9 / sliced_threads=0 / nr=0 / decimate=1 / interlaced=0 / bluray_compat=0 / constrained_intra=0 / bframes=3 / b_pyramid=2 / b_adapt=1 / b_bias=0 / direct=1 / weightb=1 / open_gop=0 / weightp=2 / keyint=250 / keyint_min=23 / scenecut=40 / intra_refresh=0 / rc_lookahead=40 / rc=crf / mbtree=1 / crf=20.0 / qcomp=0.60 / qpmin=0 / qpmax=69 / qpstep=4 / ip_ratio=1.40 / aq=1:1.00
Language                         : German
Default                          : No
Forced                           : No

Audio #1
ID                               : 2
Format                           : DTS
Format/Info                      : Digital Theater Systems
Codec ID                         : A_DTS
Duration                         : 1h 50mn
Bit rate mode                    : Constant
Bit rate                         : 1 510 Kbps
Channel(s)                       : 6 channels
Channel positions                : Front: L C R, Side: L R, LFE
Sampling rate                    : 48.0 KHz
Bit depth                        : 24 bits
Compression mode                 : Lossy
Stream size                      : 1.17 GiB (18%)
Title                            : DTS
Language                         : English
Default                          : No
Forced                           : No

Audio #2
ID                               : 3
Format                           : AC-3
Format/Info                      : Audio Coding 3
Mode extension                   : CM (complete main)
Codec ID                         : A_AC3
Duration                         : 1h 50mn
Bit rate mode                    : Constant
Bit rate                         : 640 Kbps
Channel(s)                       : 6 channels
Channel positions                : Front: L C R, Side: L R, LFE
Sampling rate                    : 48.0 KHz
Bit depth                        : 16 bits
Compression mode                 : Lossy
Stream size                      : 506 MiB (8%)
Title                            : AC3
Language                         : English
Default                          : Yes
Forced                           : No

Text
ID                               : 4
Format                           : UTF-8
Codec ID                         : S_TEXT/UTF8
Codec ID/Info                    : UTF-8 Plain Text
Language                         : Dutch
Default                          : Yes
Forced                           : No
.
Enjoy
